<?xml version="1.0" standalone="no"?>
<!DOCTYPE svg PUBLIC "-//W3C//DTD SVG 20010904//EN"
 "http://www.w3.org/TR/2001/REC-SVG-20010904/DTD/svg10.dtd">
<svg version="1.0" xmlns="http://www.w3.org/2000/svg"
 width="500.000000pt" height="500.000000pt" viewBox="0 0 500.000000 500.000000"
 preserveAspectRatio="xMidYMid meet">
<metadata>
Created by potrace 1.11, written by Peter Selinger 2001-2013
</metadata>
<g transform="translate(0.000000,500.000000) scale(0.100000,-0.100000)"
fill="#000000" stroke="none">
<path d="M2395 4804 c-80 -21 -146 -48 -330 -140 -227 -113 -258 -123 -470
-154 -196 -29 -296 -54 -376 -96 -129 -68 -209 -169 -323 -406 -93 -193 -143
-262 -313 -429 -229 -224 -274 -304 -280 -499 -4 -92 1 -145 22 -265 42 -240
43 -326 5 -550 -27 -161 -31 -208 -27 -305 7 -192 45 -259 282 -496 89 -88
177 -185 197 -215 19 -30 70 -124 113 -209 123 -246 196 -339 320 -405 76 -40
163 -62 371 -94 106 -17 220 -39 254 -51 34 -12 148 -65 254 -119 212 -108
282 -131 407 -131 131 0 225 32 428 144 192 106 262 128 523 165 233 34 350
78 447 171 66 63 120 149 224 355 94 187 155 268 287 385 109 97 196 204 243
299 41 83 42 86 45 205 3 100 -2 154 -27 305 -17 101 -31 216 -31 256 0 39 14
153 30 253 52 314 40 443 -56 588 -21 33 -111 131 -199 220 -89 88 -177 185
-197 215 -19 30 -70 124 -113 209 -188 376 -276 439 -697 500 -209 30 -271 50
-463 150 -235 122 -294 142 -425 146 -58 1 -114 1 -125 -2z m275 -129 c41 -15
136 -60 210 -100 219 -117 268 -133 550 -175 343 -50 404 -94 561 -404 51
-100 111 -211 135 -247 24 -37 119 -143 212 -235 180 -182 221 -239 248 -344
21 -81 15 -170 -22 -376 -37 -204 -37 -337 1 -539 35 -184 39 -333 12 -412
-28 -81 -103 -176 -261 -331 -81 -80 -165 -173 -189 -210 -24 -37 -85 -148
-136 -248 -165 -327 -199 -348 -678 -424 -182 -29 -231 -47 -482 -179 -159
-84 -227 -106 -331 -106 -113 0 -162 17 -396 136 -217 112 -271 129 -509 164
-188 28 -256 45 -328 82 -107 54 -172 139 -282 367 -93 193 -130 243 -325 441
-153 156 -182 190 -214 257 -56 112 -58 192 -16 443 41 241 42 344 4 550 -19
106 -28 186 -28 270 l-1 121 39 79 c35 70 61 102 216 260 192 195 233 250 317
425 112 233 179 324 280 377 80 43 141 58 338 88 94 14 204 34 244 46 70 19
198 78 336 154 192 107 336 127 495 70z"/>
<path d="M2768 4340 c-31 -5 -117 -23 -190 -41 -125 -29 -142 -31 -268 -26
-74 3 -177 10 -228 16 -121 14 -215 1 -302 -41 -68 -33 -146 -105 -303 -281
-86 -95 -133 -130 -307 -228 -123 -69 -225 -155 -265 -223 -37 -64 -63 -176
-79 -351 -19 -191 -28 -225 -111 -415 -81 -184 -99 -251 -92 -350 6 -98 29
-154 132 -330 103 -174 119 -214 156 -393 49 -231 85 -313 173 -395 57 -53
110 -82 269 -151 174 -74 205 -93 311 -188 217 -194 277 -232 396 -253 82 -15
147 -8 335 37 168 39 250 44 426 23 58 -7 152 -11 210 -9 98 4 111 7 182 42
66 33 90 53 184 154 173 187 225 235 309 284 43 26 117 69 163 95 46 27 112
76 145 109 101 99 128 176 151 430 18 186 35 249 115 429 74 165 93 233 93
321 -1 99 -30 175 -130 345 -108 181 -125 223 -162 402 -47 223 -73 288 -148
369 -62 66 -120 101 -288 174 -192 84 -211 95 -356 226 -68 61 -147 127 -174
145 -97 65 -226 92 -347 74z m254 -123 c52 -26 106 -66 188 -142 148 -137 213
-179 390 -255 289 -125 330 -174 391 -470 41 -200 61 -253 164 -424 104 -173
129 -237 128 -331 -1 -80 -13 -118 -101 -315 -73 -165 -86 -220 -106 -427 -9
-92 -25 -190 -37 -229 -29 -95 -111 -175 -269 -263 -168 -95 -229 -141 -322
-244 -270 -300 -307 -317 -618 -282 -192 22 -283 17 -460 -25 -302 -71 -378
-51 -605 160 -128 119 -202 167 -367 237 -300 129 -340 176 -399 478 -35 179
-61 249 -155 406 -104 173 -135 251 -136 334 0 81 12 123 93 305 80 183 93
232 114 445 9 88 21 178 26 200 32 119 105 196 280 294 176 99 220 133 316
238 274 303 313 322 604 290 245 -27 266 -25 569 43 129 30 220 23 312 -23z"/>
<path d="M1738 2974 c-5 -4 -8 -229 -8 -501 l0 -493 234 0 c206 0 242 2 299
20 178 55 293 196 319 394 37 273 -96 494 -337 563 -55 16 -494 31 -507 17z
m477 -198 c54 -23 113 -81 137 -134 62 -138 31 -334 -67 -420 -59 -52 -98 -64
-232 -69 l-123 -6 0 328 0 327 123 -4 c85 -3 134 -10 162 -22z"/>
<path d="M2697 2973 c-4 -3 -7 -228 -7 -500 l0 -493 100 0 100 0 0 205 0 205
200 0 200 0 0 80 0 80 -200 0 -200 0 0 125 0 125 240 0 241 0 -3 88 -3 87
-331 3 c-182 1 -333 -1 -337 -5z"/>
</g>
</svg>
